<svg width="current" height="current" viewBox="0 0 24 25" xmlns="http://www.w3.org/2000/svg">
    <path fill="current" d="M11.5 4.36395L12.6965 8.3263C13.1805 9.92921 14.4347 11.1834 16.0377 11.6675L20 12.864L16.0377 14.0604C14.4347 14.5445 13.1805 15.7987 12.6965 17.4016L11.5 21.364L10.3035 17.4016C9.81948 15.7987 8.56525 14.5445 6.96234 14.0604L3 12.864L6.96235 11.6675C8.56525 11.1834 9.81948 9.9292 10.3035 8.3263L11.5 4.36395Z"/>
    <path fill="current" d="M18 3L18.6178 5.04578C18.8114 5.68694 19.3131 6.18863 19.9542 6.38224L22 7L19.9542 7.61776C19.3131 7.81137 18.8114 8.31306 18.6178 8.95422L18 11L17.3822 8.95422C17.1886 8.31306 16.6869 7.81137 16.0458 7.61776L14 7L16.0458 6.38224C16.6869 6.18863 17.1886 5.68694 17.3822 5.04578L18 3Z"/>
</svg>
